<?xml version="1.0" encoding="utf-8"?>
<!-- Generator: Adobe Illustrator 17.1.0, SVG Export Plug-In . SVG Version: 6.00 Build 0)  -->
<!DOCTYPE svg PUBLIC "-//W3C//DTD SVG 1.1//EN" "http://www.w3.org/Graphics/SVG/1.1/DTD/svg11.dtd">
<svg version="1.1" id="Layer_1" xmlns="http://www.w3.org/2000/svg" xmlns:xlink="http://www.w3.org/1999/xlink" x="0px" y="0px"
	 viewBox="0 0 1519 1013" enable-background="new 0 0 1519 1013" xml:space="preserve">
<linearGradient id="SVGID_1_" gradientUnits="userSpaceOnUse" x1="1.5001" y1="253.8209" x2="781.4195" y2="253.8209">
	<stop  offset="0" style="stop-color:#FFFFFF"/>
	<stop  offset="0.1808" style="stop-color:#F7DFDA"/>
	<stop  offset="0.5772" style="stop-color:#E89C8D"/>
	<stop  offset="0.86" style="stop-color:#DE725D"/>
	<stop  offset="1" style="stop-color:#DA624A"/>
</linearGradient>
<path fill="url(#SVGID_1_)" d="M3.1-1l778.3,1c0,0-66.3,23.1-53.7,87.3s-11.4,78.3-11.4,78.3s-20.6,27.1-80,34.1
	c-59.4,7-123.4-11-136-9c0,0-49.7-6.5-77.7,12c0,0-22.9,8-43.4,30.1c0,0-15.4,17.6-11.4,81.3c0,0,12.6,91.8,8,93.8
	c0,0,4.6,9-11.4,50.2c0,0-8.6,23.6-48.6,41.1c0,0-40,16.1-65.7,6c0,0-24.6-5.5-48-34.6l-26.3-40.6c0,0-14.9-24.1-30.9-33.1
	c0,0-17.1-15.9-50.7-18.9c0,0-58.7-10.1-92.8,14L3.1-1z"/>
</svg>
